<?xml version="1.0" standalone="no"?>
<!DOCTYPE svg PUBLIC "-//W3C//DTD SVG 20010904//EN"
 "http://www.w3.org/TR/2001/REC-SVG-20010904/DTD/svg10.dtd">
<svg version="1.0" xmlns="http://www.w3.org/2000/svg"
 width="690.000000pt" height="690.000000pt" viewBox="0 0 690.000000 690.000000"
 preserveAspectRatio="xMidYMid meet">
<metadata>
Created by potrace 1.14, written by Peter Selinger 2001-2017
</metadata>
<g transform="translate(0.000000,690.000000) scale(0.100000,-0.100000)"
fill="#000000" stroke="none">
<path d="M1939 5175 c-2 -1 -35 -6 -74 -10 -74 -7 -314 -65 -368 -89 -18 -7
-68 -29 -112 -47 -95 -40 -254 -134 -345 -204 -84 -65 -253 -232 -318 -315
-147 -190 -264 -435 -318 -670 -38 -159 -54 -445 -33 -584 4 -28 10 -69 13
-91 9 -67 16 -96 46 -201 114 -390 368 -733 712 -962 168 -110 419 -214 606
-248 12 -2 34 -6 50 -9 73 -14 160 -20 292 -20 170 0 230 6 365 35 356 78 655
249 910 523 l89 95 20 -26 c53 -70 177 -190 293 -283 83 -67 245 -160 363
-209 41 -17 84 -35 95 -39 26 -12 151 -48 190 -55 191 -38 251 -44 420 -41 94
2 181 5 195 8 14 3 43 8 65 11 74 10 239 54 324 87 472 180 838 549 1016 1024
22 59 52 161 62 214 2 14 6 27 8 31 2 4 7 29 10 56 4 27 10 76 15 109 10 72
10 318 -1 384 -4 25 -10 68 -13 95 -4 27 -9 52 -11 56 -2 4 -6 17 -8 31 -29
156 -136 410 -240 567 -279 423 -730 704 -1237 770 -104 13 -399 6 -495 -12
-49 -9 -103 -20 -120 -23 -16 -3 -77 -21 -134 -40 -283 -96 -482 -221 -700
-441 l-124 -124 -71 77 c-265 292 -625 490 -996 551 -25 4 -56 9 -70 11 -31 5
-367 13 -371 8z m361 -208 c14 -4 39 -8 55 -11 99 -14 261 -65 375 -118 70
-32 204 -109 245 -140 134 -102 246 -210 318 -307 23 -31 50 -65 60 -75 9 -11
17 -25 17 -31 0 -7 9 -22 20 -35 11 -13 20 -29 20 -35 0 -7 7 -18 16 -26 32
-26 143 -315 158 -409 3 -19 11 -60 17 -90 14 -62 18 -331 7 -430 -9 -70 -39
-204 -64 -285 -20 -62 -86 -218 -94 -225 -11 -8 -60 -100 -54 -100 3 0 -2 -7
-11 -17 -9 -9 -28 -35 -42 -57 -69 -110 -227 -270 -366 -370 -151 -108 -368
-207 -546 -247 -46 -10 -65 -14 -151 -27 -59 -8 -320 -8 -387 1 -152 20 -353
82 -488 150 -51 25 -168 95 -200 119 -95 71 -240 206 -300 279 -41 50 -146
212 -174 267 -60 120 -124 298 -137 387 -3 17 -7 37 -10 45 -19 54 -26 361
-11 475 49 370 254 735 552 981 206 170 506 299 768 330 29 4 54 8 55 9 7 6
326 -2 352 -8z m2735 -2 c115 -22 151 -30 235 -57 558 -177 966 -657 1055
-1243 4 -22 8 -103 11 -180 7 -256 -42 -477 -157 -710 -124 -252 -305 -456
-542 -610 -186 -121 -414 -204 -637 -233 -73 -9 -321 -9 -388 1 -159 22 -352
82 -487 150 -51 25 -168 95 -200 119 -107 81 -248 212 -302 284 -54 71 -55 55
13 193 70 142 119 276 140 384 2 10 5 26 8 35 22 69 34 229 31 392 -5 281 -53
475 -180 733 l-63 129 55 66 c31 37 89 99 130 138 224 218 571 383 863 410 30
3 57 8 59 10 6 5 320 -4 356 -11z"/>
<path d="M1390 3445 l0 -896 468 1 c459 1 470 2 588 26 168 36 248 77 369 189
108 100 192 290 212 477 15 146 5 424 -16 481 -5 12 -9 25 -9 30 -3 59 -55
186 -109 271 -95 148 -222 239 -399 287 -75 21 -106 22 -591 26 l-513 5 0
-897z m883 445 c152 -57 205 -176 205 -455 0 -212 -28 -316 -103 -390 -54 -52
-109 -66 -280 -72 l-151 -6 0 478 1 477 135 -5 c107 -4 147 -9 193 -27z"/>
<path d="M4720 4359 c-264 -34 -466 -152 -599 -347 -103 -153 -153 -332 -155
-562 -4 -387 174 -712 463 -842 138 -63 251 -82 471 -83 215 0 300 10 437 51
92 27 284 121 383 186 l65 43 2 383 2 382 -429 0 -428 0 -1 -185 -1 -185 185
0 185 0 1 -27 c3 -53 -1 -135 -7 -144 -11 -19 -148 -81 -218 -99 -96 -25 -229
-21 -308 9 -109 42 -186 136 -224 272 -19 67 -27 321 -13 404 28 170 99 274
228 333 48 22 70 26 156 26 87 1 107 -2 156 -25 64 -30 110 -76 139 -136 15
-33 24 -41 42 -38 25 3 89 14 122 21 11 2 102 18 201 36 99 17 182 33 184 34
7 6 -33 113 -66 174 -95 175 -252 279 -478 315 -65 10 -425 14 -495 4z"/>
</g>
</svg>
