<?xml version="1.0" standalone="no"?>
<!DOCTYPE svg PUBLIC "-//W3C//DTD SVG 20010904//EN"
 "http://www.w3.org/TR/2001/REC-SVG-20010904/DTD/svg10.dtd">
<svg version="1.0" xmlns="http://www.w3.org/2000/svg"
 width="662.000000pt" height="662.000000pt" viewBox="0 0 662.000000 662.000000"
 preserveAspectRatio="xMidYMid meet">
<metadata>
Created by potrace 1.14, written by Peter Selinger 2001-2017
</metadata>
<g transform="translate(0.000000,662.000000) scale(0.100000,-0.100000)"
fill="#000000" stroke="none">
<path d="M4555 4890 c-482 -43 -898 -281 -1154 -660 -81 -120 -128 -215 -185
-374 -5 -13 -21 10 -64 96 -215 424 -608 706 -1122 804 -86 16 -171 19 -867
22 l-773 3 0 -711 0 -710 90 0 90 0 0 620 0 620 638 0 c673 0 739 -4 915 -49
170 -44 335 -119 466 -212 86 -60 222 -188 266 -249 17 -23 40 -54 51 -68 41
-51 123 -217 154 -311 41 -121 69 -269 77 -397 11 -185 -28 -433 -92 -584 -31
-73 -31 -78 -2 -89 20 -8 111 -48 129 -58 18 -9 92 216 118 360 16 82 22 169
25 327 7 300 36 455 124 658 213 493 708 792 1309 792 189 0 431 -58 627 -150
213 -101 412 -283 529 -483 16 -26 27 -49 25 -51 -2 -2 -117 -34 -256 -71
l-251 -68 -89 90 c-146 148 -287 217 -518 250 -213 31 -428 -14 -606 -127
-177 -113 -303 -315 -354 -569 -25 -120 -17 -401 14 -516 96 -353 357 -581
730 -635 112 -17 340 -7 453 19 183 42 342 125 456 238 l72 73 0 135 0 135
-360 0 -360 0 0 230 0 230 593 -2 592 -3 2 -160 2 -160 88 0 88 0 0 250 0 250
-772 3 -773 2 0 -410 0 -410 365 0 c237 0 365 -4 365 -10 0 -12 -105 -95 -160
-126 -176 -100 -465 -142 -678 -98 -204 42 -366 155 -457 319 -183 331 -119
805 139 1023 61 52 165 107 241 127 190 49 426 17 586 -81 69 -42 163 -133
199 -194 56 -94 1 -97 471 30 228 62 416 114 418 116 17 16 -103 261 -177 363
-197 274 -492 472 -835 561 -193 49 -407 67 -602 50z"/>
<path d="M1098 4134 c-5 -4 -8 -403 -8 -886 l0 -878 343 0 c362 0 452 8 593
51 205 63 378 193 477 360 79 134 126 353 112 529 -27 361 -225 632 -550 756
-153 58 -219 66 -605 71 -195 3 -358 2 -362 -3z m767 -187 c298 -63 496 -244
562 -515 23 -94 22 -295 -1 -387 -57 -224 -205 -378 -436 -455 -122 -41 -210
-50 -486 -50 l-244 0 0 716 0 715 268 -5 c178 -3 290 -10 337 -19z"/>
</g>
</svg>
